<?xml version="1.0" encoding="utf-8" standalone="no"?>
<!DOCTYPE svg PUBLIC "-//W3C//DTD SVG 1.1//EN"
  "http://www.w3.org/Graphics/SVG/1.1/DTD/svg11.dtd">
<svg xmlns:xlink="http://www.w3.org/1999/xlink" width="180.313359pt" height="69.84895pt" viewBox="0 0 180.313359 69.84895" xmlns="http://www.w3.org/2000/svg" version="1.1">
 <metadata>
  <rdf:RDF xmlns:dc="http://purl.org/dc/elements/1.1/" xmlns:cc="http://creativecommons.org/ns#" xmlns:rdf="http://www.w3.org/1999/02/22-rdf-syntax-ns#">
   <cc:Work>
    <dc:type rdf:resource="http://purl.org/dc/dcmitype/StillImage"/>
    <dc:date>2026-05-05T09:59:28.877075</dc:date>
    <dc:format>image/svg+xml</dc:format>
    <dc:creator>
     <cc:Agent>
      <dc:title>Matplotlib v3.10.8, https://matplotlib.org/</dc:title>
     </cc:Agent>
    </dc:creator>
   </cc:Work>
  </rdf:RDF>
 </metadata>
 <defs>
  <style type="text/css">*{stroke-linejoin: round; stroke-linecap: butt}</style>
 </defs>
 <g id="figure_1">
  <g id="patch_1">
   <path d="M 0 69.84895 
L 180.313359 69.84895 
L 180.313359 0 
L 0 0 
L 0 69.84895 
z
" style="fill: none"/>
  </g>
  <g id="axes_1">
   <g id="patch_2">
    <path d="M 15.1125 33.108004 
L 98.8125 33.108004 
L 98.8125 13.581966 
L 15.1125 13.581966 
L 15.1125 33.108004 
z
" style="fill: none"/>
   </g>
   <g id="PathCollection_1">
    <defs>
     <path id="m298605e4c5" d="M 0 0.707107 
C 0.187527 0.707107 0.367398 0.632602 0.5 0.5 
C 0.632602 0.367398 0.707107 0.187527 0.707107 0 
C 0.707107 -0.187527 0.632602 -0.367398 0.5 -0.5 
C 0.367398 -0.632602 0.187527 -0.707107 0 -0.707107 
C -0.187527 -0.707107 -0.367398 -0.632602 -0.5 -0.5 
C -0.632602 -0.367398 -0.707107 -0.187527 -0.707107 0 
C -0.707107 0.187527 -0.632602 0.367398 -0.5 0.5 
C -0.367398 0.632602 -0.187527 0.707107 0 0.707107 
z
" style="stroke: #000000"/>
    </defs>
    <g clip-path="url(#p374213482c)">
     <use xlink:href="#m298605e4c5" x="18.917045" y="30.224717" style="fill: #808080; stroke: #000000"/>
     <use xlink:href="#m298605e4c5" x="19.868182" y="30.47908" style="fill: #808080; stroke: #000000"/>
     <use xlink:href="#m298605e4c5" x="20.819318" y="29.317935" style="fill: #808080; stroke: #000000"/>
     <use xlink:href="#m298605e4c5" x="21.770455" y="30.042121" style="fill: #808080; stroke: #000000"/>
     <use xlink:href="#m298605e4c5" x="22.721591" y="30.089458" style="fill: #808080; stroke: #000000"/>
     <use xlink:href="#m298605e4c5" x="23.672727" y="30.233525" style="fill: #808080; stroke: #000000"/>
     <use xlink:href="#m298605e4c5" x="24.623864" y="27.064676" style="fill: #808080; stroke: #000000"/>
     <use xlink:href="#m298605e4c5" x="25.575" y="15.650251" style="fill: #808080; stroke: #000000"/>
     <use xlink:href="#m298605e4c5" x="26.526136" y="23.036383" style="fill: #808080; stroke: #000000"/>
     <use xlink:href="#m298605e4c5" x="27.477273" y="30.853414" style="fill: #808080; stroke: #000000"/>
     <use xlink:href="#m298605e4c5" x="28.428409" y="30.993015" style="fill: #808080; stroke: #000000"/>
     <use xlink:href="#m298605e4c5" x="29.379545" y="31.921666" style="fill: #808080; stroke: #000000"/>
     <use xlink:href="#m298605e4c5" x="30.330682" y="30.760818" style="fill: #808080; stroke: #000000"/>
     <use xlink:href="#m298605e4c5" x="31.281818" y="29.45244" style="fill: #808080; stroke: #000000"/>
     <use xlink:href="#m298605e4c5" x="32.232955" y="30.08665" style="fill: #808080; stroke: #000000"/>
     <use xlink:href="#m298605e4c5" x="33.184091" y="29.961417" style="fill: #808080; stroke: #000000"/>
     <use xlink:href="#m298605e4c5" x="34.135227" y="29.718278" style="fill: #808080; stroke: #000000"/>
     <use xlink:href="#m298605e4c5" x="35.086364" y="28.948022" style="fill: #808080; stroke: #000000"/>
     <use xlink:href="#m298605e4c5" x="36.0375" y="28.692698" style="fill: #808080; stroke: #000000"/>
     <use xlink:href="#m298605e4c5" x="36.988636" y="25.925006" style="fill: #808080; stroke: #000000"/>
     <use xlink:href="#m298605e4c5" x="37.939773" y="18.312164" style="fill: #808080; stroke: #000000"/>
     <use xlink:href="#m298605e4c5" x="38.890909" y="25.513278" style="fill: #808080; stroke: #000000"/>
     <use xlink:href="#m298605e4c5" x="39.842045" y="31.377329" style="fill: #808080; stroke: #000000"/>
     <use xlink:href="#m298605e4c5" x="40.793182" y="31.316008" style="fill: #808080; stroke: #000000"/>
     <use xlink:href="#m298605e4c5" x="41.744318" y="31.691569" style="fill: #808080; stroke: #000000"/>
     <use xlink:href="#m298605e4c5" x="42.695455" y="30.815776" style="fill: #808080; stroke: #000000"/>
     <use xlink:href="#m298605e4c5" x="43.646591" y="29.867007" style="fill: #808080; stroke: #000000"/>
     <use xlink:href="#m298605e4c5" x="44.597727" y="30.985051" style="fill: #808080; stroke: #000000"/>
     <use xlink:href="#m298605e4c5" x="45.548864" y="29.887055" style="fill: #808080; stroke: #000000"/>
     <use xlink:href="#m298605e4c5" x="46.5" y="29.15221" style="fill: #808080; stroke: #000000"/>
     <use xlink:href="#m298605e4c5" x="47.451136" y="29.402211" style="fill: #808080; stroke: #000000"/>
     <use xlink:href="#m298605e4c5" x="48.402273" y="28.137841" style="fill: #808080; stroke: #000000"/>
     <use xlink:href="#m298605e4c5" x="49.353409" y="18.058718" style="fill: #808080; stroke: #000000"/>
     <use xlink:href="#m298605e4c5" x="50.304545" y="23.096655" style="fill: #808080; stroke: #000000"/>
     <use xlink:href="#m298605e4c5" x="51.255682" y="29.601181" style="fill: #808080; stroke: #000000"/>
     <use xlink:href="#m298605e4c5" x="52.206818" y="32.126191" style="fill: #808080; stroke: #000000"/>
     <use xlink:href="#m298605e4c5" x="53.157955" y="32.220457" style="fill: #808080; stroke: #000000"/>
     <use xlink:href="#m298605e4c5" x="54.109091" y="31.15148" style="fill: #808080; stroke: #000000"/>
     <use xlink:href="#m298605e4c5" x="55.060227" y="31.654142" style="fill: #808080; stroke: #000000"/>
     <use xlink:href="#m298605e4c5" x="56.011364" y="31.14066" style="fill: #808080; stroke: #000000"/>
    </g>
   </g>
   <g id="line2d_1">
    <path d="M 18.917045 30.133118 
L 23.720284 30.010559 
L 24.67142 27.472075 
L 24.861648 25.853248 
L 25.028097 21.905556 
L 25.313438 14.469513 
L 25.408551 14.719662 
L 25.693892 16.482976 
L 27.786392 31.468086 
L 28.024176 31.531253 
L 28.85642 31.371339 
L 30.639801 30.823238 
L 35.44304 28.964135 
L 36.227727 28.468611 
L 36.608182 27.986679 
L 36.869744 27.305759 
L 37.08375 26.047133 
L 37.273977 23.223625 
L 37.630653 16.393675 
L 37.654432 16.415682 
L 37.773324 16.929327 
L 38.225114 20.509963 
L 39.62804 31.056426 
L 39.842045 31.448668 
L 40.127386 31.482231 
L 41.173636 31.241541 
L 43.099688 30.584793 
L 47.974261 28.594063 
L 48.44983 28.109295 
L 48.73517 27.505973 
L 48.949176 26.53892 
L 49.139403 24.511518 
L 49.400966 18.06923 
L 49.567415 16.487952 
L 49.63875 16.661832 
L 49.876534 18.269442 
L 51.541023 31.024671 
L 51.755028 31.439312 
L 52.040369 31.478993 
L 52.254375 31.537402 
L 52.515938 31.709023 
L 53.110398 31.704636 
L 55.559574 31.391228 
L 63.572898 30.210069 
L 66.640313 29.870795 
L 67.781676 28.417911 
L 68.043239 27.605061 
L 68.233466 26.255899 
L 68.399915 23.096607 
L 68.709034 14.594801 
L 68.756591 14.639963 
L 68.92304 15.398973 
L 69.398608 19.007287 
L 71.01554 31.303578 
L 71.229545 31.627036 
L 71.562443 31.648418 
L 73.131818 31.383462 
L 75.366989 30.787692 
L 80.170227 29.452847 
L 82.357841 28.809586 
L 82.952301 28.423317 
L 83.308977 27.917796 
L 83.546761 27.174116 
L 83.736989 25.807155 
L 83.903438 22.898178 
L 84.236335 15.911824 
L 84.260114 15.929221 
L 84.379006 16.426238 
L 84.807017 19.787705 
L 86.281278 31.153606 
L 86.495284 31.581968 
L 86.780625 31.634653 
L 87.945767 31.455247 
L 90.062045 30.926897 
L 90.347386 30.948505 
L 90.799176 31.137887 
L 91.512528 31.167203 
L 93.12946 30.952648 
L 95.007955 30.650002 
L 95.007955 30.650002 
" clip-path="url(#p374213482c)" style="fill: none; stroke: #000000; stroke-linecap: square"/>
   </g>
   <g id="mpl_toolkits.axisartist.axis_artist_1">
    <g id="patch_3">
     <path d="M 15.1125 33.108004 
L 98.8125 33.108004 
L 105.194466 33.108004 
" style="fill: none; stroke: #000000; stroke-linecap: round"/>
     <path d="M 102.194466 31.608004 
L 105.194466 33.108004 
L 102.194466 34.608004 
z
" style="stroke: #000000; stroke-linecap: round"/>
    </g>
   </g>
   <g id="mpl_toolkits.axisartist.axis_artist_2">
    <g id="patch_4">
     <path d="M 15.1125 33.108004 
L 15.1125 13.581966 
L 15.1125 7.2 
" style="fill: none; stroke: #000000; stroke-linecap: round"/>
     <path d="M 13.6125 10.2 
L 15.1125 7.2 
L 16.6125 10.2 
z
" style="stroke: #000000; stroke-linecap: round"/>
    </g>
    <g id="text_1">
     <!-- $V$ -->
     <g transform="translate(7.2 21.85436)">
      <text>
       <tspan x="0" y="-0.265625" style="font-size: 7.5px; font-family: 'Arial'">V</tspan>
      </text>
     </g>
    </g>
   </g>
   <g id="legend_1">
    <g id="PathCollection_2">
     <g>
      <use xlink:href="#m298605e4c5" x="116.9325" y="27.729683" style="fill: #808080; stroke: #000000"/>
     </g>
    </g>
    <g id="text_2">
     <text style="font-size: 7.5px; font-family: 'Arial', sans-serif; text-anchor: start" x="125.9325" y="29.698433" transform="rotate(-0 125.9325 29.698433)">Data</text>
    </g>
    <g id="line2d_2">
     <path d="M 113.9325 37.682418 
L 116.9325 37.682418 
L 119.9325 37.682418 
" style="fill: none; stroke: #000000; stroke-linecap: square"/>
    </g>
    <g id="text_3">
     <text style="font-size: 7.5px; font-family: 'Arial', sans-serif; text-anchor: start" x="125.9325" y="40.307418" transform="rotate(-0 125.9325 40.307418)">Hybrid model</text>
    </g>
   </g>
  </g>
  <g id="axes_2">
   <g id="patch_5">
    <path d="M 15.1125 52.389966 
L 98.8125 52.389966 
L 98.8125 42.626947 
L 15.1125 42.626947 
L 15.1125 52.389966 
z
" style="fill: none"/>
   </g>
   <g id="line2d_3">
    <path d="M 18.917045 51.946192 
L 23.648949 51.946192 
L 23.767841 43.070721 
L 52.18304 43.070721 
L 52.301932 51.946192 
L 66.450085 51.946192 
L 66.568977 47.508457 
L 90.228494 47.508457 
L 90.347386 51.946192 
L 95.007955 51.946192 
L 95.007955 51.946192 
" clip-path="url(#p97cf7d244d)" style="fill: none; stroke: #000000; stroke-linecap: square"/>
   </g>
   <g id="mpl_toolkits.axisartist.axis_artist_3">
    <g id="patch_6">
     <path d="M 15.1125 52.389966 
L 98.8125 52.389966 
L 105.194466 52.389966 
" style="fill: none; stroke: #000000; stroke-linecap: round"/>
     <path d="M 102.194466 50.889966 
L 105.194466 52.389966 
L 102.194466 53.889966 
z
" style="stroke: #000000; stroke-linecap: round"/>
    </g>
    <g id="text_4">
     <!-- $Time$ -->
     <g transform="translate(48.6 61.158325)">
      <text>
       <tspan x="0" y="-0.265625" style="font-size: 7.5px; font-family: 'Arial'">T</tspan>
       <tspan x="4.581299" y="-0.265625" style="font-size: 7.5px; font-family: 'Arial'">i</tspan>
       <tspan x="6.247559" y="-0.265625" style="font-size: 7.5px; font-family: 'Arial'">m</tspan>
       <tspan x="12.495117" y="-0.265625" style="font-size: 7.5px; font-family: 'Arial'">e</tspan>
      </text>
     </g>
    </g>
   </g>
   <g id="mpl_toolkits.axisartist.axis_artist_4">
    <g id="patch_7">
     <path d="M 15.1125 52.389966 
L 15.1125 42.626947 
L 15.1125 36.244981 
" style="fill: none; stroke: #000000; stroke-linecap: round"/>
     <path d="M 13.6125 39.244981 
L 15.1125 36.244981 
L 16.6125 39.244981 
z
" style="stroke: #000000; stroke-linecap: round"/>
    </g>
    <g id="text_5">
     <!-- $I$ -->
     <g transform="translate(8.6625 46.017832)">
      <text>
       <tspan x="0" y="-0.265625" style="font-size: 7.5px; font-family: 'Arial'">I</tspan>
      </text>
     </g>
    </g>
   </g>
  </g>
 </g>
 <defs>
  <clipPath id="p374213482c">
   <rect x="15.1125" y="13.581966" width="83.7" height="19.526038"/>
  </clipPath>
  <clipPath id="p97cf7d244d">
   <rect x="15.1125" y="42.626947" width="83.7" height="9.763019"/>
  </clipPath>
 </defs>
</svg>
